<svg width="168" height="168" viewBox="0 0 168 168" fill="none" xmlns="http://www.w3.org/2000/svg">
<path d="M139.425 0C155.208 0 168 12.7926 168 28.5755V139.425C168 155.207 155.208 168 139.425 168H28.5748C12.7924 168 0 155.207 0 139.425V28.5755C0 12.7926 12.7924 0 28.5748 0H139.425ZM83.5088 19.0419C80.2749 19.2714 76.7649 20.9207 73.9791 22.5413C67.1706 26.4995 64.0837 34.1041 66.9053 41.6334C76.2271 59.4742 84.7529 77.7776 94.2324 95.5324C97.3696 101.412 100.066 105.665 107.29 106.701C113.392 107.576 122.284 103.409 125.65 98.2393C131.595 89.1002 125.658 81.1729 121.52 72.9302C114.368 58.6711 107.24 44.2543 99.7395 30.1781C96.1434 23.4304 92.0705 18.4396 83.5088 19.0455V19.0419ZM55.21 61.3888C49.4915 61.9087 41.8369 66.5123 39.4025 71.8402C36.778 77.5876 37.8787 81.8326 40.4888 87.1856C49.6026 105.876 59.6164 124.197 69.017 142.734C79.5722 157.588 106.096 143.609 99.1766 126.417C90.4464 109.454 82.0747 92.2948 73.2728 75.3682C69.1963 67.527 65.7365 60.4279 55.21 61.3852V61.3888ZM15.3523 37.9154C15.9761 51.2135 30.7691 58.7966 41.9659 51.6007C52.6645 44.724 52.0693 28.5217 41.0087 22.3369C29.715 16.023 16.1948 23.8212 15.3558 36.4884V37.9118H15.3523V37.9154ZM133.176 20.261C126.514 21.0103 120.441 26.5927 118.906 33.0643C115.396 47.8504 131.046 59.718 144.201 52.0453C159.987 42.8381 152.149 18.1205 133.18 20.2574H133.176V20.261Z" fill="#0000CC"/>
</svg>
