<svg width="122" height="122" viewBox="0 0 122 122" fill="none" xmlns="http://www.w3.org/2000/svg">
<rect x="10" y="8" width="102" height="108" fill="white"/>
<path d="M101.249 0C112.71 0 122 9.28988 122 20.7512V101.249C122 112.71 112.71 122 101.249 122H20.7508C9.28968 122 0 112.71 0 101.249V20.7512C0 9.28988 9.28968 0 20.7508 0H101.249ZM60.6433 13.8281C58.2948 13.9947 55.7459 15.1924 53.7229 16.3693C48.7786 19.2437 46.5369 24.7661 48.586 30.2338C55.3554 43.1896 61.5468 56.4813 68.4307 69.3747C70.7089 73.6447 72.6668 76.7327 77.9131 77.4851C82.3444 78.1204 88.8014 75.095 91.2461 71.3405C95.5629 64.7037 91.2514 58.947 88.2468 52.9612C83.0526 42.6064 77.8766 32.1371 72.4299 21.9151C69.8184 17.015 66.8607 13.3907 60.6433 13.8307V13.8281ZM40.093 44.58C35.9402 44.9575 30.3815 48.3006 28.6137 52.1697C26.7078 56.3433 27.5072 59.4261 29.4026 63.3134C36.021 76.8863 43.2928 90.191 50.1195 103.652C57.7845 114.439 77.0461 104.287 72.0211 91.8027C65.6813 79.4847 59.6019 67.0236 53.21 54.7317C50.2497 49.0375 47.7372 43.8822 40.093 44.5774V44.58ZM11.1487 27.5338C11.6017 37.1908 22.3442 42.6975 30.4753 37.472C38.2444 32.4781 37.8122 20.7122 29.7801 16.2208C21.5787 11.6358 11.7605 17.2988 11.1513 26.4975V27.5312H11.1487V27.5338ZM96.7111 14.7133C91.8736 15.2575 87.4631 19.3114 86.3488 24.011C83.7998 34.7485 95.1646 43.3667 104.717 37.7948C116.181 31.1086 110.489 13.1589 96.7137 14.7107H96.7111V14.7133Z" fill="#0000CC"/>
</svg>
