<svg width="250" height="46" viewBox="0 0 250 46" fill="none" xmlns="http://www.w3.org/2000/svg">
<path d="M38.1217 0C42.437 0 45.9347 3.49826 45.9347 7.81423V38.1269C45.9347 42.4429 42.437 45.9412 38.1217 45.9412H7.81295C3.49769 45.9412 0 42.4429 0 38.1269V7.81423C0 3.49826 3.49769 0 7.81295 0H38.1217ZM22.833 5.2072C21.9488 5.26995 20.9891 5.72095 20.2274 6.16412C18.3658 7.24654 17.5218 9.32609 18.2933 11.385C20.8421 16.2638 23.1732 21.269 25.7651 26.1242C26.6229 27.7322 27.36 28.895 29.3353 29.1783C31.0038 29.4176 33.4349 28.2783 34.3554 26.8645C35.9808 24.3653 34.3574 22.1975 33.2261 19.9434C31.2704 16.0442 29.3216 12.1018 27.2708 8.25249C26.2876 6.40727 25.174 5.04248 22.833 5.20818V5.2072ZM15.0956 16.7873C13.532 16.9295 11.4391 18.1884 10.7734 19.6454C10.0559 21.217 10.3568 22.3779 11.0705 23.8417C13.5624 28.9528 16.3003 33.963 18.8707 39.0319C21.7567 43.0939 29.0089 39.2711 27.1169 34.5699C24.7299 29.9313 22.4409 25.2389 20.0343 20.6101C18.9197 18.4659 17.9737 16.5246 15.0956 16.7864V16.7873ZM4.19762 10.3683C4.3682 14.0048 8.41289 16.0785 11.4744 14.1107C14.3996 12.2302 14.2368 7.79952 11.2126 6.10823C8.12469 4.38165 4.42799 6.51414 4.1986 9.97809V10.3673H4.19762V10.3683ZM36.4131 5.54055C34.5917 5.74547 32.9311 7.27203 32.5115 9.04175C31.5518 13.0852 35.8308 16.3305 39.4275 14.2323C43.7437 11.7145 41.6008 4.95522 36.414 5.53957H36.4131V5.54055Z" fill="#0000CC"/>
<path d="M62.4205 11.9403H66.3964L73.1179 31.231H73.3171L80.1375 11.9403H84.2306L75.2641 35.7055H71.2044L62.4205 11.9403Z" fill="#0000CC"/>
<path d="M87.5403 33.5811C85.9326 31.8674 85.1295 29.6309 85.1295 26.8716C85.1295 24.1123 85.925 21.8622 87.516 20.1212C89.107 18.3786 91.1482 17.5074 93.6397 17.5074C94.4367 17.5074 95.1835 17.6165 95.8817 17.8362C96.5798 18.0544 97.1639 18.3392 97.6339 18.6893C98.1039 19.0393 98.4781 19.359 98.7549 19.6499C99.0317 19.9393 99.2645 20.2272 99.4531 20.5106H99.7025V17.9559H103.28V35.7055H99.7694V33.1872H99.5535C98.1465 35.1646 96.2315 36.154 93.8055 36.154C91.2364 36.154 89.1481 35.2964 87.5403 33.5826V33.5811ZM88.8058 26.8231C88.8058 28.6626 89.3123 30.1385 90.3253 31.2522C91.3384 32.3659 92.6708 32.922 94.3211 32.922C95.9714 32.922 97.3115 32.3401 98.3077 31.1764C99.304 30.0127 99.8029 28.5626 99.8029 26.8231C99.8029 24.9503 99.2858 23.4683 98.2499 22.3774C97.2141 21.2864 95.8938 20.7409 94.2876 20.7409C92.6814 20.7409 91.3536 21.3091 90.3345 22.444C89.3154 23.5805 88.8058 25.0397 88.8058 26.8231Z" fill="#0000CC"/>
<path d="M109.154 31.2976V10.2493H112.732V31.0658C112.732 31.5401 112.849 31.9053 113.082 32.1583C113.314 32.4129 113.652 32.5386 114.096 32.5386H114.844V35.704H113.381C112.04 35.704 110.999 35.3176 110.262 34.5433C109.524 33.7705 109.156 32.6871 109.156 31.2946L109.154 31.2976Z" fill="#0000CC"/>
<path d="M118.305 26.8231C118.305 25.07 118.708 23.482 119.516 22.0592C120.323 20.6363 121.45 19.5226 122.898 18.718C124.346 17.9134 125.968 17.5104 127.761 17.5104C129.554 17.5104 131.173 17.918 132.616 18.7317C134.058 19.5469 135.178 20.6606 135.975 22.0758C136.772 23.4911 137.169 25.073 137.169 26.8231C137.169 28.5732 136.766 30.1597 135.959 31.581C135.153 33.0023 134.028 34.1205 132.581 34.9327C131.135 35.7449 129.518 36.1525 127.728 36.1525C124.993 36.1525 122.737 35.2706 120.964 33.5038C119.19 31.7386 118.303 29.5112 118.303 26.8216L118.305 26.8231ZM121.981 26.8231C121.981 28.5959 122.521 30.0551 123.601 31.2022C124.681 32.3492 126.056 32.922 127.729 32.922C129.402 32.922 130.794 32.3462 131.874 31.1931C132.954 30.0415 133.494 28.5838 133.494 26.8231C133.494 25.0624 132.954 23.5941 131.874 22.4531C130.794 21.3121 129.413 20.7409 127.729 20.7409C126.045 20.7409 124.667 21.3137 123.593 22.4607C122.52 23.6078 121.983 25.0609 121.983 26.8231H121.981Z" fill="#0000CC"/>
<path d="M142.179 35.7055V17.9559H145.623V21.0379H145.855C146.166 20.2197 146.748 19.4969 147.601 18.8665C148.455 18.2362 149.465 17.9225 150.63 17.9225H152.193V21.3864H150.529C149.043 21.3864 147.875 21.894 147.028 22.9107C146.179 23.9275 145.755 25.2745 145.755 26.9549V35.7055H142.177H142.179Z" fill="#0000CC"/>
<path d="M154.873 35.7055L163.691 11.9403H168.166L177.017 35.7055H173.141L171.261 30.584H160.53L158.65 35.7055H154.873ZM161.677 27.2534H170.094L166.018 16.0497H165.769L161.676 27.2534H161.677Z" fill="#0000CC"/>
<path d="M181.359 35.7055V11.9403H185.036V35.7055H181.359Z" fill="#0000CC"/>
<path d="M190.692 35.7055V32.6235L199.958 21.2031V20.9712H190.992V17.9544H204.45V20.9712L195.184 32.4401V32.6886H204.617V35.7055H190.692Z" fill="#0000CC"/>
<path d="M208.411 26.8883C208.411 25.0427 208.799 23.4047 209.576 21.9743C210.352 20.5439 211.415 19.4408 212.762 18.668C214.11 17.8953 215.627 17.5074 217.312 17.5074C218.666 17.5074 219.896 17.7453 221.005 18.2195C222.114 18.6953 223.032 19.3469 223.758 20.1757C224.485 21.0046 225.045 21.9713 225.439 23.0759C225.833 24.1805 226.029 25.3685 226.029 26.6398V27.9656H211.988C212.055 29.5187 212.581 30.7688 213.569 31.7158C214.556 32.6629 215.859 33.1372 217.478 33.1372C218.609 33.1372 219.621 32.8841 220.514 32.3795C221.407 31.875 222.03 31.1931 222.385 30.337H225.862C225.396 32.0825 224.406 33.4887 222.893 34.5554C221.379 35.6222 219.54 36.154 217.377 36.154C214.726 36.154 212.569 35.2843 210.905 33.5432C209.241 31.8022 208.409 29.5854 208.409 26.8898L208.411 26.8883ZM212.055 25.2154H222.486C222.375 23.7669 221.837 22.6228 220.873 21.7849C219.908 20.947 218.72 20.5257 217.312 20.5257C215.903 20.5257 214.75 20.9652 213.751 21.8425C212.753 22.7198 212.188 23.8441 212.054 25.2154H212.055Z" fill="#0000CC"/>
<path d="M229.468 13.1344V11.9464H236.93V13.1344H233.966V21.7561H232.432V13.1344H229.468ZM244.765 21.7561H243.539C241.95 17.7968 240.927 15.1602 240.473 13.848H240.439V21.7561H239.11V11.9464H241.086C242.926 16.63 243.969 19.3226 244.22 20.0242L247.218 11.9464H249.161V21.7561H247.831V13.848H247.798C247.32 15.2512 246.31 17.8877 244.765 21.7561Z" fill="#0000CC"/>
</svg>
